<svg width="498" height="444" viewBox="0 0 249 222" fill="none" xmlns="http://www.w3.org/2000/svg">
<g filter="url(#filter0_d_163_1039)">
<path fill-rule="evenodd" clip-rule="evenodd" d="M174.435 185.427C184.648 185.427 194.805 184.884 204.636 183.812L204.641 183.791L205.163 183.722C206.648 183.522 208.167 183.364 209.636 183.211C213.51 182.808 217.517 182.391 221.254 181.153L221.914 180.934L221.978 181.113C222.076 181.059 222.178 181.002 222.286 180.948C221.698 170.552 220.717 160.349 219.832 151.71L219.795 151.356L220.012 151.089C221.264 149.545 221.726 148.251 221.421 147.137C218.924 141.494 218.394 134.295 217.882 127.332C216.821 112.9 215.819 99.2689 198.506 98.6789L198.479 98.6775L198.296 98.6638C194.686 98.396 190.953 98.1189 187.618 96.3219L187.229 96.1127L187.206 95.6434C187.178 95.0772 186.534 94.4037 186.017 93.8627C185.839 93.6764 185.671 93.5005 185.519 93.3243L185.488 93.2874L185.461 93.2467C184.68 92.0725 183.763 91.3717 183.009 91.3717C181.909 91.3717 181.376 92.8656 181.157 93.7561L180.81 95.1599L179.893 94.0986C177.739 91.6055 176.708 88.8638 176.824 85.9401L176.746 85.9137L176.846 85.2152C177.035 84.003 176.909 83.1038 176.472 82.5429C175.959 81.8862 174.954 81.5669 173.398 81.5669C172.371 81.5669 171.252 81.7072 170.266 81.8309C169.943 81.8714 169.632 81.9104 169.338 81.943C167.363 82.1682 165.344 82.5735 163.391 82.9654L163.117 83.0203L163.303 83.5671L162.828 83.9221C162.196 84.3953 161.725 85.3444 161.536 86.5259L161.528 86.5793L161.513 86.6312C161.232 87.5946 161.126 88.6706 161.013 89.8097C160.823 91.7263 160.627 93.708 159.567 95.414L158.931 96.4389L158.32 95.3954C158.023 94.8862 157.623 94.6386 157.1 94.6386C155.687 94.6386 153.963 96.3293 153.656 97.6397L153.558 98.0606L153.179 98.2032C150.579 99.1835 148.436 99.8989 146.546 100.53C141.799 102.115 139.416 102.91 137.888 105.242C136.315 107.64 135.519 111.827 134.195 120.156C132.746 129.182 131.778 138.459 130.842 147.431C129.667 158.7 128.452 170.348 126.27 181.647C126.422 181.816 126.537 181.985 126.615 182.152C127.578 182.244 128.558 182.328 129.51 182.409C131.096 182.544 132.735 182.684 134.337 182.865L134.693 182.906L134.772 183.038C134.918 183.052 135.062 183.067 135.203 183.083C135.429 183.107 135.647 183.131 135.86 183.145L135.924 183.005L136.441 183.068C149.307 184.633 162.09 185.427 174.435 185.427" fill="#D08B5B"/>
<path fill-rule="evenodd" clip-rule="evenodd" d="M183.009 91.3717C181.909 91.3717 181.376 92.8656 181.157 93.7561L180.81 95.1599L180.275 94.5404L181.249 96.3851L173.668 103.918L173.378 104.139C170.28 106.489 168.171 107.663 167.05 107.663C165.895 107.663 162.458 104.6 156.738 98.4741L159.826 96.3851L159.548 95.4456L158.931 96.4389L158.32 95.3954C158.023 94.8862 157.623 94.6385 157.1 94.6385C155.687 94.6385 153.963 96.3293 153.656 97.6397L153.558 98.0606L152.869 98.3195C150.818 99.087 149.054 99.6897 147.473 100.22L145.451 100.896C141.423 102.252 139.294 103.097 137.888 105.242C136.346 107.592 135.551 111.66 134.274 119.661L134.195 120.156C132.812 128.772 131.867 137.616 130.97 146.206L130.621 149.548C129.511 160.154 128.315 171.054 126.27 181.647C126.422 181.816 126.537 181.985 126.615 182.152C127.257 182.213 127.907 182.271 128.55 182.326L130.38 182.483C131.691 182.596 133.027 182.717 134.337 182.865L134.693 182.906L134.772 183.038C134.869 183.047 134.966 183.057 135.061 183.067L135.203 183.083C135.429 183.107 135.647 183.131 135.86 183.145L135.924 183.005L136.441 183.068C149.307 184.633 162.09 185.427 174.435 185.427C184.648 185.427 194.805 184.884 204.636 183.812L204.641 183.791L205.163 183.722C206.351 183.562 207.561 183.429 208.749 183.304L210.468 183.124C214.081 182.744 217.784 182.303 221.254 181.153L221.914 180.934L221.978 181.113C222.076 181.059 222.178 181.002 222.286 180.948L222.246 180.247C221.654 170.094 220.697 160.155 219.832 151.71L219.795 151.356L220.012 151.089C221.264 149.545 221.726 148.251 221.421 147.137C218.924 141.494 218.394 134.295 217.882 127.332L217.819 126.467C216.785 112.504 215.499 99.5246 199.021 98.7005L198.479 98.6775L197.658 98.6161C194.248 98.3581 190.756 98.0132 187.618 96.3219L187.229 96.1127L187.206 95.6434C187.181 95.1387 186.667 94.5488 186.189 94.0435L185.867 93.7053C185.744 93.5759 185.627 93.4502 185.519 93.3243L185.488 93.2874L185.461 93.2467C184.68 92.0725 183.763 91.3717 183.009 91.3717Z" fill="white"/>
<path fill-rule="evenodd" clip-rule="evenodd" d="M196.402 129.637C196.373 129.582 196.275 129.601 196.283 129.672C196.709 132.738 197.744 135.709 198.374 138.737L198.355 138.794C198.033 139.79 197.294 143.381 199.101 142.383L199.246 143.201C201.596 156.576 203.493 170.094 203.228 183.748C203.189 184.835 203.715 188.054 205.134 186.477C206.177 184.584 205.718 182.262 205.8 180.16C205.621 168.619 204.535 156.99 201.747 145.826L201.632 145.44C199.788 139.301 199.795 141.267 200.661 134.414C200.682 133.781 201.104 132.407 200.549 132.027C200.048 132.369 199.882 133.374 199.7 133.97L199.688 134.01C199.418 134.861 199.178 135.72 198.939 136.583C198.148 134.268 197.512 131.801 196.402 129.637ZM166.936 182.556C165.913 182.228 164.991 183.489 165.348 184.522C165.58 185.599 167.514 186.268 167.587 184.766C168.116 184.154 167.945 183.028 167.222 182.688C167.229 182.686 167.003 182.588 166.936 182.556ZM142.134 121.465C142.096 121.323 141.987 121.453 142.016 121.543C141.788 122.796 141.973 124.174 141.921 125.475C141.775 125.103 141.585 124.746 141.339 124.413C141.126 124.124 140.739 124.536 140.961 124.822C141.512 125.532 141.753 126.388 141.858 127.277C141.049 145.85 138.668 164.389 134.583 182.452C133.698 184.944 137.269 185.953 136.877 183.24C139.579 170.571 141.734 157.635 142.216 144.611C142.866 138.896 142.61 132.942 142.521 127.153C142.517 125.267 142.349 123.334 142.134 121.465ZM178.496 83.5826C177.493 83.6687 176.911 85.4721 176.711 86.4613C175.978 90.3389 177.95 94.3745 180.545 96.9175C176.713 100.656 172.551 103.987 168.06 106.746C167.449 105.996 166.37 106.104 165.618 106.556C163.186 104.065 160.722 101.628 158.355 99.0675C162.035 96.5469 162.343 91.3573 161.606 87.1348L161.583 87.0072C161.528 86.6448 161.061 86.7763 161.035 87.0877L161.018 87.2882C160.797 90.0343 160.778 92.999 159.367 95.3985C157.762 92.6544 153.916 95.4626 153.352 97.8763C137.222 103.956 137.071 100.373 133.879 120.453C130.651 140.982 129.738 161.864 125.958 182.299C125.911 182.878 126.397 183.352 126.881 183.431C128.73 183.698 128.788 178.288 129.214 176.777C130.124 171.137 130.811 165.457 131.403 159.768C133.222 142.918 133.844 125.811 137.365 109.236C137.719 107.841 138.224 106.461 139.115 105.361C142.83 100.985 149.274 101.941 153.301 98.0407C152.911 99.3407 152.88 100.778 152.956 102.135C153.397 109.372 153.663 116.622 154.136 123.856C154.191 124.669 155.099 124.936 155.524 124.263C158.894 118.939 162.352 113.695 165.637 108.306C166.166 108.578 166.731 108.702 167.337 108.572C168.298 109.885 167.883 113.322 168.197 115.123L168.313 116.502C170.107 137.87 171.425 159.291 171.327 180.758L171.323 181.45C171.324 182.109 171.277 182.792 171.323 183.448C171.733 185.582 173.673 184.818 173.564 182.915C173.651 158.863 172.733 134.654 169.067 110.902C172.376 115.418 175.682 119.937 178.993 124.452C179.241 124.793 179.711 124.643 179.908 124.328L179.92 124.307L179.839 124.543C180.038 124.474 180.212 124.343 180.392 124.23C182.057 119.805 183.134 115.164 184.442 110.611C185.533 106.146 187.17 101.768 187.773 97.1931L187.8 97.1807V97.1807C189.438 98.0722 191.253 98.6444 193.087 98.6784C195.16 99.2567 197.342 99.5295 199.411 99.8235C214.45 100.52 217.423 116.686 217.286 130.087L217.312 130.726C217.469 134.711 217.543 138.766 218.455 142.642C218.792 143.373 219.858 148.078 220.93 146.407C221.834 147.714 221.551 148.476 220.346 149.284C218.242 151.24 216.19 154.353 215.785 157.561C215.709 158.154 216.495 158.674 216.774 158.013L216.913 157.684C217.728 155.768 218.59 153.894 219.754 152.23C219.806 152.323 219.876 152.401 219.96 152.454C220.24 160.393 220.806 168.319 221.313 176.244C221.59 177.38 221.068 184.59 223.19 182.809L223.256 182.752C223.74 181.641 223.449 180.297 223.35 179.111L223.051 175.311V175.311C222.407 167.555 221.879 159.784 220.989 152.055L221.059 151.969C222.083 150.684 223.039 148.989 222.535 147.275C222.277 146.245 221.42 145.732 220.84 144.944C217.696 126.986 223.129 99.1807 198.947 98.3075L197.935 98.2316C194.675 97.9813 191.318 97.6247 188.367 96.0346C188.312 94.9134 187.129 93.9633 186.483 93.21C184.492 90.2164 181.821 90.0663 180.855 93.9824C178.286 90.9919 177.248 87.5194 178.496 83.5826ZM167.67 170.59C166.418 169.283 164.74 171.663 167.011 173.345C167.423 174.162 168.549 173.586 168.357 172.73L168.359 172.586C168.376 171.842 168.444 170.922 167.67 170.59ZM167.537 153.15C165.25 152.352 165.82 156.86 167.328 157.475C168.24 157.965 168.552 156.739 168.386 155.99C168.978 155.016 168.435 153.735 167.537 153.15ZM167.573 140.196C167.995 138.264 165.435 137.942 165.42 139.96C165.337 140.808 166.052 141.36 166.232 142.098C166.271 142.578 166.815 142.916 167.163 142.515C167.744 141.846 167.869 140.938 167.573 140.196ZM167.895 123.033C167.634 120.772 165.27 121.725 166.105 122.101C166.122 122.121 166.139 122.14 166.158 122.16C165.203 122.26 165.27 123.474 165.377 124.25C165.751 125.988 168.178 124.407 167.895 123.033ZM182.431 115.841C182.237 116.601 182.042 117.361 181.841 118.12C181.326 120.075 180.713 121.978 180.067 123.877C180.857 121.199 181.645 118.52 182.431 115.841ZM181.125 94.3114C183.388 90.1972 184.609 94.8354 186.251 96.6585C185.091 105.633 181.582 114.017 179.194 122.669C175.866 118.064 172.535 113.462 169.207 108.858C169.008 108.582 168.816 108.293 168.617 108.01C172.795 105.396 176.735 102.305 180.051 98.471C180.689 98.6187 181.178 97.6955 181.636 97.3113L181.684 97.2686C182.108 96.8822 182.5 96.2726 182.234 95.6717C182.269 95.5902 182.215 95.5153 182.142 95.4905C181.811 95.0969 181.46 94.7175 181.125 94.3114ZM154.73 102.932C154.51 99.9961 154.957 95.7863 158.604 96.4562C157.955 97.4194 156.733 97.575 156.09 98.4998C155.855 98.9232 156.144 99.4477 156.572 99.528C159.403 102.304 162.079 105.147 164.969 107.88C161.757 112.382 158.674 116.969 155.55 121.54C155.335 115.335 154.955 109.136 154.73 102.932Z" fill="black"/>
<path fill-rule="evenodd" clip-rule="evenodd" d="M148.23 61.1341C149.08 49.8901 151.668 39.9314 163.832 39.5068C169.321 39.56 174.924 40.8251 179.972 43.166C192.241 49.84 196.134 74.2268 185.324 84.0436C185.389 84.0833 185.404 84.1979 185.328 84.2533C183.095 85.8832 180.613 87.2243 178.127 88.3512C171.505 91.3887 163.709 92.708 156.955 89.4132C146.649 84.6552 146.494 71.4157 148.23 61.1341V61.1341Z" fill="#D08B5B"/>
<path fill-rule="evenodd" clip-rule="evenodd" d="M127.943 55.8932C127.519 55.4793 127.203 54.9365 127.044 54.3277C126.897 53.7728 126.887 53.1667 127.042 52.6131C127.208 52.0191 127.566 51.5461 127.486 50.928C127.477 50.8675 127.466 50.8044 127.449 50.7412C127.139 49.5775 126.377 48.7377 126.65 47.4476C126.726 47.0835 126.871 46.7556 127.073 46.4976C127.051 46.2181 127.031 45.9359 127.015 45.6537C126.568 44.5182 126.584 43.1691 127.061 42.0511C127.119 41.4786 127.207 40.9115 127.331 40.3539C127.274 39.8607 127.353 39.3178 127.499 38.8865C127.756 38.1275 128.073 37.3796 128.418 36.644C128.377 36.4428 128.395 36.2302 128.498 36.0412C128.684 35.6976 128.93 35.3955 129.181 35.1003C129.359 34.7559 129.538 34.4143 129.715 34.0771C129.797 33.9222 129.888 33.7503 129.988 33.5682C129.716 33.0192 129.57 32.4841 129.858 31.8384C129.967 31.5958 130.265 31.417 130.51 31.4328C130.778 31.4502 131.049 31.4632 131.321 31.4744C131.83 30.8081 132.406 30.21 133.023 29.8657C133.649 29.2906 134.283 28.7262 134.9 28.1498C135.074 27.9858 135.25 27.8219 135.425 27.6579C135.426 27.6539 135.427 27.6485 135.429 27.6445C135.558 27.1352 135.702 26.6326 135.847 26.1274C135.938 25.8143 135.965 25.4864 136.246 25.3157C136.833 24.9596 137.736 24.9032 138.41 24.8427C138.477 24.7782 138.544 24.7151 138.611 24.6506C138.305 23.7664 138.359 22.8271 138.744 21.9415C138.876 21.6405 139.331 21.5048 139.582 21.7037C140.159 22.1633 140.844 22.3259 141.521 22.2587C142.517 21.4282 146.534 17.6729 147.154 17.2765C147.162 17.2623 147.168 17.248 147.176 17.2339C147.525 16.6295 147.949 16.1441 148.425 15.7549C148.493 15.678 148.561 15.6008 148.629 15.5237C148.57 15.0629 148.412 14.618 148.159 14.2458C148.132 14.2028 148.101 14.1611 148.07 14.1208C147.626 13.5483 148.167 12.812 148.787 13.1116C148.831 13.1331 148.876 13.1546 148.921 13.1775C149.397 13.4078 149.923 13.6581 150.472 13.8694C150.673 13.7878 150.877 13.7139 151.064 13.6325L153.063 12.7608C153.392 12.6172 153.739 12.4956 154.058 12.327C154.169 11.5262 154.908 11.0011 155.676 11.0285C155.632 10.8748 155.566 10.7255 155.473 10.584C155.445 10.5423 155.416 10.502 155.385 10.463C154.99 9.96451 155.517 9.04 156.082 9.48344C156.122 9.51435 156.163 9.54525 156.202 9.57616C156.359 9.69562 156.52 9.80769 156.682 9.91627C156.942 9.79318 157.235 9.76509 157.541 9.8953C158.22 10.1835 158.845 10.4766 159.443 10.9284C159.467 10.9468 159.492 10.9623 159.517 10.9796C159.813 10.591 160.284 10.3311 160.708 10.3339C160.717 10.3339 160.723 10.3338 160.731 10.3336C161.048 9.80971 161.629 9.50521 162.19 9.57925C162.152 8.82741 162.846 8.15647 163.477 8.0749C164.215 7.97976 164.88 8.44457 165.102 9.22557C165.164 9.44299 165.225 9.66055 165.287 9.8781C165.86 9.56433 166.464 9.32393 167.096 9.20394C168.534 8.93061 169.941 9.22167 171.327 9.6549C171.465 9.69817 171.604 9.74265 171.742 9.787C171.94 9.53853 172.125 9.28416 172.302 9.04671C172.608 8.63686 173.343 8.96474 173.293 9.4915C173.259 9.85499 173.395 10.1165 173.614 10.3023C173.855 10.3405 174.087 10.3521 174.438 10.3444C174.902 10.3342 175.113 10.3185 175.597 10.1134C175.823 10.018 176.105 9.76711 176.236 9.54189C176.741 8.67825 178.023 8.44565 178.634 9.26911C179.276 8.96394 180.088 9.38481 180.444 9.97822C180.631 10.2885 181.02 10.462 181.511 10.6111C181.879 10.7229 182.255 10.8076 182.633 10.8816C182.801 10.6337 183.156 10.4675 183.416 10.6754C183.592 10.8166 183.764 10.9616 183.932 11.1102C185.234 11.3048 186.529 11.3118 187.77 10.7611C188.821 10.2948 189.786 11.5683 189.613 12.6374C189.917 12.8093 190.247 12.9236 190.548 13.1037C191.204 13.4969 191.742 14.1184 192.07 14.8486C192.129 14.9793 192.182 15.1121 192.233 15.2455C192.478 15.462 192.72 15.6843 192.957 15.9188C193.351 15.6997 193.743 15.4807 194.137 15.2617C194.432 15.0977 194.929 15.2119 194.987 15.6366C195.082 16.3353 195.314 16.9145 195.645 17.3996C196.72 18.0123 197.754 18.7004 198.744 19.465C199.882 19.852 201.092 20.0777 202.087 20.3317C202.427 20.419 202.613 20.9015 202.421 21.2226C202.218 21.5626 202.015 21.9026 201.813 22.2425C202.379 22.8419 202.91 23.4681 203.412 24.1158C204.808 25.9164 205.976 27.8904 207.021 29.9813C207.435 30.1627 207.848 30.3428 208.262 30.5242C208.661 30.6989 208.841 31.2015 208.517 31.571C208.364 31.747 208.226 31.9325 208.109 32.1273C208.694 33.1795 209.384 34.1389 210.349 34.7678C210.643 34.9586 210.863 35.2583 210.981 35.5983C211.081 35.6708 211.18 35.7488 211.278 35.8281C211.551 36.0511 211.715 36.5376 211.396 36.8265C211.172 37.0307 210.961 37.2726 210.783 37.54C210.744 37.6919 210.705 37.8451 210.665 37.9969C211.562 38.8918 212.307 39.9319 212.867 41.0983C213 41.0755 213.136 41.0903 213.246 41.1789C214.247 41.9812 214.277 43.2591 213.874 44.4013C214.117 46.1227 213.961 47.887 213.493 49.5547C214.108 50.2212 214.479 51.1833 214.63 52.1105C214.896 53.7392 214.914 56.244 214.984 57.9062C215.655 58.609 216.133 59.5187 216.4 60.497C216.624 60.6179 216.848 60.7389 217.072 60.8598C217.272 60.9673 217.418 61.2508 217.405 61.49C217.348 62.647 216.909 63.5608 216.325 64.3885C216.118 65.0268 215.812 65.6154 215.411 66.1798C215.134 66.5668 214.862 66.9377 214.623 67.3556C214.599 67.3972 214.584 67.4362 214.573 67.4631C214.667 67.5733 214.745 67.756 214.813 67.8864C215.385 68.9802 215.394 70.2622 214.581 71.2149C214.887 71.4863 214.897 72.0346 214.627 72.3705C212.87 74.5488 211.404 77.1974 208.966 78.3544C208.954 78.3745 208.945 78.3947 208.936 78.4148C209.43 79.7048 209.497 80.3754 209.093 81.7084C209.091 81.7205 209.087 81.7312 209.083 81.7433C208.868 82.4421 208.471 83.5615 207.757 83.7792C207.531 83.8477 207.31 83.8786 207.09 83.8772C206.523 84.4698 205.957 85.0638 205.391 85.6577C205.342 85.952 205.311 86.249 205.301 86.5487C205.285 87.0499 204.85 87.4557 204.382 87.3079C204.217 87.2555 203.305 86.2947 203.138 86.3001C203.054 86.3914 202.972 86.4828 202.89 86.5755C202.589 86.9182 202.172 87.4584 202.137 87.8172C202.07 88.4931 201.662 89.2671 201.002 89.4042C200.754 89.677 200.357 89.7589 200.054 89.4028C200.034 89.38 200.014 89.3571 199.993 89.337C199.961 89.333 199.93 89.3289 199.898 89.3249C199.752 89.7979 199.606 90.2709 199.458 90.7426C199.17 91.6725 198.067 92.2704 197.285 91.7275C197.158 91.8095 197.034 91.8969 196.911 91.9842C196.722 92.1146 196.532 92.2476 196.336 92.3726C196.325 92.4075 196.314 92.4424 196.304 92.476C196.177 92.8939 195.652 93.1183 195.329 92.8778C195.229 92.9128 195.126 92.941 195.022 92.9638C194.475 93.0807 193.926 93.0485 193.398 92.8509C193.02 92.7112 192.66 92.4438 192.253 92.4075C192.228 92.4052 192.202 92.4071 192.176 92.4063C191.845 93.1429 191.087 93.7777 190.49 93.9934C189.709 94.276 188.909 94.175 188.197 93.8289C188.005 94.2456 187.763 94.6402 187.475 95.005C187.315 95.2066 187.027 95.1636 186.862 95.005C186.549 94.7041 186.238 94.4018 185.928 94.099C185.703 94.0051 185.476 93.8924 185.24 93.7875C184.5 93.4597 183.689 93.3238 183.004 92.85C182.679 92.6251 182.374 92.338 182.122 92.0054C181.648 91.7085 181.213 91.3385 180.82 90.9146C180.624 90.9159 180.42 90.8662 180.222 90.7573C179.393 90.3005 178.957 89.3706 178.919 88.4192C178.248 86.7059 177.851 84.8784 177.742 83.0078C177.708 82.3937 177.701 81.7742 177.745 81.1601C177.774 80.7274 177.875 80.4385 178.026 80.0475C178.077 79.9198 178.123 79.8029 178.158 79.6739C178.15 79.2601 178.145 78.8462 178.14 78.4336C178.037 78.0856 177.854 77.7617 177.599 77.489C177.203 77.067 177.023 76.1909 177.382 75.6695C177.616 75.3322 177.849 74.9949 178.083 74.6576C178.017 73.2104 177.698 70.9072 178.406 70.6653C178.378 70.4503 178.317 70.238 178.282 70.0243C178.116 68.9977 178.215 68.0799 178.718 67.1822C178.824 66.9955 178.913 66.8302 178.986 66.6689C179.032 66.3733 179.077 66.0777 179.123 65.782C179.194 65.3265 179.263 64.8669 179.323 64.4047C179.354 63.8161 179.382 63.2275 179.413 62.6376C179.442 62.0947 179.474 61.5518 179.507 61.0076C179.494 60.7644 179.474 60.5212 179.445 60.278C179.276 58.828 178.729 58.2919 177.783 57.284C177.635 57.2585 177.487 57.2303 177.342 57.198C176.667 57.0462 175.961 56.811 175.266 56.8957C174.512 56.9871 173.837 57.3405 173.104 56.889C172.888 56.7546 172.414 56.3837 172.373 56.0894C172.371 56.0706 172.367 56.0545 172.362 56.0424C172.311 56.0343 172.245 56.0276 172.205 56.0263C171.622 56.0048 171.066 56.2534 170.479 56.1848C169.784 56.1042 169.163 55.7696 168.754 55.2738C168.23 55.4135 167.695 55.4767 167.151 55.3987C166.695 55.3342 166.287 55.173 165.883 54.9338C165.589 54.7618 165.682 54.7121 165.363 54.8518C164.636 55.1716 163.978 55.5936 163.159 55.3745C162.734 55.2617 162.368 55.0131 162.059 54.6785C161.986 54.6005 161.862 54.4836 161.779 54.3734C161.391 54.5871 160.412 55.0695 160.251 55.1125C159.795 55.2334 159.312 55.2146 158.869 55.0534C158.543 54.9351 158.144 54.6126 157.858 54.5468C157.488 54.4608 156.665 55.0198 156.223 55.2119C155.448 55.5492 154.627 55.6325 153.841 55.2845C153.571 55.1649 153.046 54.6879 152.844 54.6919C152.516 55.1313 151.6 57.5353 151.325 58.4128C150.211 61.9604 149.923 73.0371 150.437 75.863C150.456 75.9463 150.477 76.0283 150.498 76.1116C151.13 78.5693 151.788 81.0688 152.844 83.3585C153.841 85.5166 155.22 87.4597 157.198 88.6382C159.249 89.8611 161.657 90.1822 163.963 90.0169C165.448 89.9121 166.908 89.5883 168.345 89.1824C169.096 88.9715 169.84 88.7363 170.581 88.4918C170.904 88.3856 171.232 88.2862 171.549 88.1625C172.109 87.9435 172.403 87.926 172.939 88.2069C173.427 88.4622 173.552 89.216 173.298 89.6904C172.885 90.4644 172.127 90.5182 171.395 90.7439C170.649 90.9737 169.901 91.1941 169.148 91.3916C167.705 91.7679 166.238 92.0568 164.759 92.1898C162.111 92.4303 159.383 92.0595 156.973 90.8057C156.7 90.6633 156.437 90.5114 156.184 90.3475C156.278 90.4899 156.373 90.6324 156.47 90.7735C156.737 91.1645 156.539 91.8297 156.164 92.0433C156.045 92.1105 155.926 92.175 155.806 92.2382C155.79 92.2798 155.772 92.3215 155.753 92.3632C155.409 93.1103 154.691 93.551 153.959 93.7419C153.09 93.9676 152.116 93.8077 151.232 93.7795C150.412 93.7526 149.592 93.7257 148.773 93.6989C148.58 93.6935 148.387 93.6868 148.193 93.68C147.22 93.6478 146.248 93.6169 145.275 93.5846C144.408 93.5564 144.449 93.629 143.636 93.2527C143.273 93.0834 142.975 92.8442 142.725 92.5257C142.569 92.4505 142.418 92.3645 142.273 92.2664C141.807 91.952 141.394 91.53 141.012 91.0651C140.364 91.2868 139.457 91.0812 139.33 90.1983C139.127 88.786 137.435 88.1827 136.645 87.1614C136.007 86.3377 135.551 85.2586 135.575 84.2226C133.967 83.3787 133.093 81.1548 132.888 79.2681C132.793 78.3933 132.808 77.4567 132.67 76.5671C132.61 76.4959 132.555 76.4207 132.509 76.34C132.106 75.6319 131.754 74.9022 131.444 74.1551C131.023 73.8258 130.517 73.6229 129.986 73.5893C128.683 73.5074 128.438 71.6006 129.68 71.141C129.687 71.1383 129.692 71.137 129.698 71.1343C129.361 70.2205 129.389 69.1388 129.798 68.2734C129.781 68.1793 129.765 68.0866 129.749 67.9925C129.051 67.1796 128.651 66.0494 128.696 64.9489C128.377 64.7057 128.021 64.5175 127.631 64.4006C127.027 64.2206 127.024 63.4224 127.47 63.0649C127.649 62.9211 127.798 62.7532 127.922 62.5677C127.613 61.5626 127.735 60.4002 128.365 59.5752C127.965 59.0188 127.565 58.4625 127.165 57.9062C126.9 57.538 126.76 56.9131 127.165 56.5638C127.424 56.3394 127.683 56.1163 127.943 55.8932Z" fill="black"/>
<path fill-rule="evenodd" clip-rule="evenodd" d="M157.863 81.4538C158.777 81.7405 159.759 81.7662 160.691 81.4701C161.536 81.2015 162.404 80.6104 163.026 79.8283C163.579 79.1335 163.937 78.2891 163.923 77.3879C163.921 77.2849 163.887 77.199 163.835 77.1323C163.779 77.0605 163.7 77.0112 163.616 76.9898C163.529 76.9678 163.438 76.9756 163.36 77.014C163.289 77.0487 163.229 77.1077 163.191 77.1938C163.095 77.3298 163 77.4638 162.904 77.5941C162.135 78.6218 161.391 79.3899 160.235 79.6654C159.608 79.8149 158.981 79.7486 158.406 79.5205C157.791 79.2763 157.235 78.847 156.799 78.2977C156.602 78.0494 156.37 77.948 156.142 77.9463C155.885 77.9444 155.63 78.074 155.438 78.2812C155.249 78.4849 155.123 78.7616 155.112 79.0511C155.102 79.3052 155.178 79.5706 155.382 79.8074C156.053 80.5874 156.922 81.1588 157.863 81.4538ZM157.891 68.5816C156.954 69.1984 155.526 70.6367 156.534 72.1658C157.721 73.5141 159.43 71.9682 160.272 71.269C161.053 70.7272 161.93 72.1208 161.205 72.7534C155.121 77.6307 152.651 68.7429 157.417 67.8564C157.942 67.7587 158.137 68.3908 157.891 68.5816ZM166.659 65.8676C166.96 65.659 167.315 65.5874 167.707 65.7809C168.014 65.932 168.552 66.4357 168.927 67.0979C169.183 67.5509 169.365 68.0823 169.327 68.6359C169.318 68.7644 169.362 68.8592 169.432 68.9293C169.486 68.9847 169.565 69.0254 169.658 69.0381C169.737 69.0489 169.825 69.0391 169.896 69.0149C170.033 68.9689 170.105 68.8731 170.132 68.795C170.394 68.0408 170.281 67.1993 169.987 66.44C169.591 65.4154 168.87 64.5571 168.398 64.2804C167.59 63.8067 166.638 63.7849 165.829 64.2675C165.14 64.6782 164.71 65.3413 164.281 66.0172C164.19 66.1609 164.1 66.3035 164.007 66.4436C163.82 66.7244 163.801 67.0029 163.873 67.2417C163.954 67.5062 164.158 67.7295 164.414 67.8463C164.651 67.9543 164.925 67.9695 165.168 67.8585C165.374 67.7648 165.562 67.5821 165.681 67.2721C165.882 66.7499 166.217 66.1739 166.659 65.8676V65.8676ZM151.359 67.0292C151.566 67.1456 151.727 67.1807 151.956 67.1064C152.082 67.0653 152.207 66.9864 152.305 66.8804C152.402 66.7753 152.472 66.6446 152.5 66.4997C152.567 66.1419 152.747 65.807 153.005 65.5887C153.225 65.4021 153.503 65.3032 153.812 65.359C154.144 65.4192 154.461 65.6502 154.68 65.9225C154.752 66.0136 154.81 66.1171 154.867 66.2199C154.975 66.4122 155.079 66.5909 155.228 66.7321C155.284 66.7858 155.369 66.823 155.451 66.823C155.484 66.823 155.518 66.8171 155.55 66.8062C155.881 66.4464 155.945 66.1735 155.934 65.9027C155.923 65.6188 155.82 65.3314 155.653 65.0631C155.261 64.434 154.517 63.9182 154.014 63.8013C153.327 63.6413 152.644 63.8334 152.096 64.2492C151.533 64.6771 151.115 65.3414 150.985 66.09C150.954 66.2703 150.967 66.4649 151.031 66.6337C151.093 66.7985 151.201 66.9398 151.359 67.0292ZM165.142 59.1598C165.555 59.5952 166.043 59.6626 166.538 59.7226C166.812 59.7562 167.031 59.7833 167.247 59.836C167.84 59.9809 168.426 60.1991 168.96 60.5133C169.519 60.8419 170.128 61.2381 170.567 61.7456C170.671 61.8664 170.769 61.9931 170.867 62.1201C170.957 62.236 171.043 62.3475 171.134 62.455C171.239 62.5785 171.338 62.7079 171.437 62.837C171.498 62.9459 171.51 62.9727 171.522 63.0006C171.541 63.0425 171.563 63.0894 171.587 63.1397C171.621 63.2086 171.66 63.284 171.702 63.3524C171.77 63.4774 171.807 63.5118 171.839 63.5272C171.892 63.5527 171.942 63.5653 171.991 63.5585C172.036 63.5521 172.079 63.5284 172.122 63.4895C172.334 63.2957 172.396 62.9776 172.39 62.64C172.38 62.1277 172.205 61.5604 172.045 61.2117C171.67 60.4014 171.151 59.5591 170.528 58.9544C169.816 58.2641 169.037 57.7415 168.142 57.3814C167.586 57.1576 166.942 56.9521 166.337 56.978C165.901 56.9967 165.484 57.137 165.141 57.4874C164.93 57.7025 164.828 58.0085 164.828 58.3142C164.828 58.6261 164.934 58.9397 165.142 59.1598ZM150.52 63.1461C150.546 63.1927 150.582 63.2248 150.623 63.2441C150.665 63.2643 150.713 63.2701 150.758 63.2618C150.803 63.2536 150.846 63.2314 150.88 63.1975C150.913 63.165 150.938 63.1219 150.949 63.0691C151.223 61.7663 151.755 60.7969 152.89 60.1718C153.449 59.8643 154.091 59.669 154.699 59.5132C154.876 59.4679 155.063 59.4386 155.251 59.4089C155.84 59.3157 156.434 59.209 156.818 58.6933C157.049 58.3827 157.147 57.9854 157.092 57.6221C157.04 57.28 156.855 56.9663 156.52 56.7783C155.684 56.3105 154.645 56.7695 153.802 57.1605C153.739 57.1895 153.678 57.218 153.617 57.2455C152.792 57.6226 152.04 58.1204 151.421 58.8323C150.93 59.3971 150.475 60.232 150.292 61.0909C150.14 61.8054 150.175 62.5349 150.52 63.1461Z" fill="black"/>
<path fill-rule="evenodd" clip-rule="evenodd" d="M133.821 98.0486C132.44 94.23 133.477 89.3953 130.632 86.2356C129.79 85.7219 129.344 86.0077 128.997 86.9035C128.788 88.0822 128.298 92.1408 130.061 92.1389C130.282 94.6737 130.144 97.2268 129.601 99.7144C128.3 99.5049 127.352 100.176 126.404 100.675C125.696 101.048 124.988 101.324 124.134 101.069C120.607 100.444 119.602 104.164 119.559 107.2C119.507 108.681 119.369 112.135 118.719 113.572C115.778 107.456 109.602 104.671 103.718 103.296C102.795 103.04 102.008 102.69 101.416 102.091C96.4581 100.125 98.8401 93.6834 96.559 89.9814C92.9886 85.5802 88.7007 84.3139 83.2989 85.0681C78.5725 85.593 75.3598 90.4146 75.6512 94.9658C75.7386 95.8945 75.1836 96.8713 74.8571 97.827C71.5947 101.747 66.5184 103.501 62.1523 105.87C47.5896 113.018 42.5428 118.481 36.8836 133.691C34.2362 139.414 31.0679 144.968 30.0156 151.271C28.7792 158.698 28.7753 166.3 29.2057 173.801C28.4021 173.897 29.2766 179.663 29.9815 181.66C30.223 182.345 30.8017 182.838 31.5228 182.827C32.9732 183.535 36.3786 186.388 37.8957 186.293C42.7973 185.99 47.5618 186.459 52.2842 186.216C57.3932 185.954 62.453 184.997 67.5838 185.121C76.5315 185.338 70.1254 185.871 79.3826 186.293C85.2264 186.564 106.546 183.359 112.374 183.882C117.113 184.883 119.276 183.195 118.553 178.222C118.285 176.316 117.432 172.077 120.24 171.897C121.568 172.051 122.668 173.385 123.663 174.164C132.454 180.736 141.434 176.004 142.142 165.198C143.474 156.136 145.342 153.995 141.282 144.945C128.434 111.254 147.79 115.832 134.721 100.051C133.701 100.944 133.96 98.562 133.821 98.0486Z" fill="#EDB98A"/>
<path fill-rule="evenodd" clip-rule="evenodd" d="M72.134 105.238C80.5073 109.527 87.129 111.672 91.9992 111.672C96.8694 111.672 105.447 112.67 117.733 114.667L123.799 128.057L137.186 130.683L137.245 131.033C137.897 134.791 139.143 139.338 141.282 144.945C145.342 153.995 143.474 156.136 142.142 165.198C141.434 176.004 132.454 180.736 123.663 174.164C122.668 173.385 121.568 172.051 120.24 171.897C117.488 172.073 118.253 176.148 118.536 178.105L118.553 178.222C119.276 183.195 117.113 184.883 112.374 183.882C106.546 183.359 85.2265 186.564 79.3826 186.293C70.1254 185.871 76.5315 185.338 67.5839 185.121C62.453 184.997 57.3933 185.954 52.2842 186.216C47.8102 186.446 43.2984 186.037 38.6681 186.252L31.5228 182.827C28.8802 163.824 29.2817 151.364 32.7273 145.447C36.1556 139.559 40.7463 129.881 46.4994 116.412C46.5875 116.317 46.6765 116.223 46.7661 116.13L72.134 105.238Z" fill="#78E185"/>
<path fill-rule="evenodd" clip-rule="evenodd" d="M128.938 85.9833C129.64 85.2912 130.754 85.4634 131.438 86.0787C132.134 86.7035 132.552 87.6858 132.91 88.5325C134.513 92.3394 134.139 96.5077 134.95 100.491C136.434 101.296 137.774 102.346 138.722 103.76C140.163 105.907 140.847 108.408 140.124 110.953C139.751 112.27 139.117 113.49 138.665 114.779C138.182 116.151 137.886 117.577 137.744 119.025C137.605 120.447 137.586 121.877 137.626 123.304C137.648 124.043 137.686 124.781 137.725 125.518C137.76 126.18 137.877 126.869 137.719 127.517L137.7 127.592C137.761 127.582 137.822 127.57 137.882 127.557C138.398 127.441 138.853 127.261 139.392 127.332C139.813 127.388 140.031 127.74 139.853 128.137C139.775 128.311 139.672 128.456 139.548 128.579C140.631 136.629 142.525 144.549 143.77 152.572C144.335 156.213 144.679 159.864 144.485 163.55L144.465 163.915C144.267 167.299 143.781 171.029 142.069 173.988C141.268 175.374 140.169 176.603 138.836 177.489C138.226 177.894 137.571 178.212 136.861 178.37C133.179 179.843 129.285 179.481 125.813 177.534C124.251 176.66 122.694 175.64 121.419 174.374C120.799 173.758 120.201 172.975 119.835 172.119C119.836 172.311 119.801 172.508 119.84 172.697L119.917 173.071C120.495 175.853 122.699 186.133 122.729 186.996C122.745 187.461 118.842 187.45 118.419 187.464L118.407 187.465C112.086 187.729 105.762 187.588 99.4452 187.326L98.9466 187.305C92.8204 187.044 86.1539 186.694 80.0212 186.515L80.034 186.412C80.1073 185.859 80.4646 183.399 80.5044 183.21L80.5059 183.204C80.6797 182.5 81.015 180.312 80.8385 179.586C80.3839 177.716 78.3354 178.143 76.8941 178.342L76.5905 178.382C76.3572 178.414 75.7895 178.498 75.7948 178.503C75.6417 178.343 76.006 177.888 76.0957 177.767L76.1675 177.667C76.5548 177.122 76.9051 176.557 76.8668 175.856C76.7737 174.143 74.3362 174.239 73.1384 174.358C73.054 174.366 73.0194 174.499 73.1167 174.519L73.353 174.568C74.1129 174.732 75.8009 175.15 75.7627 175.781C75.741 176.14 75.3606 176.404 75.1282 176.63C74.8719 176.88 74.6173 177.148 74.4283 177.454C74.0643 178.043 73.9816 178.837 74.3417 179.451C74.7571 180.158 75.4938 180.24 76.2316 180.176L76.2734 180.172C76.4358 180.157 76.5982 180.141 76.7605 180.125L77.7347 180.03C77.9759 180.006 78.751 179.802 78.9774 179.943C79.2983 180.142 78.9124 181.026 78.84 181.317L78.8362 181.338C78.774 181.759 78.7367 186.175 78.7304 186.467C73.9511 186.356 69.1711 185.288 64.392 185.539C60.5952 185.738 56.8087 186.083 53.019 186.382L52.9234 185.565C51.873 176.668 50.2261 164.929 51.0165 156.13C51.0783 155.441 50.0075 155.445 49.9461 156.13C49.1288 165.229 50.9178 177.452 51.9583 186.464C50.3451 186.587 48.7312 186.698 47.1154 186.784L46.7033 186.805C41.205 187.081 35.53 187.097 30.1492 185.831C29.9832 185.792 29.927 185.625 29.9618 185.487C29.9083 185.518 29.828 185.5 29.8053 185.425C29.1785 183.35 28.8601 178.066 28.576 175.78L28.5569 175.63C28.2652 173.409 28.098 171.162 27.9775 168.928C27.734 164.457 27.7635 159.981 28.0926 155.515C29.1403 141.273 33.3123 126.884 42.0683 115.437C44.1851 112.671 46.5949 110.139 49.4863 108.181C52.323 106.26 55.5048 104.906 58.7335 103.807C60.8676 103.08 63.0352 102.458 65.2028 101.837C65.2849 101.796 65.367 101.755 65.4494 101.715L65.5735 101.656C66.3442 101.289 67.1028 100.887 67.8923 100.56L68.0667 100.489C69.2107 100.028 70.5435 99.6206 71.7819 99.6346C73.7876 98.6201 75.4722 97.087 75.3089 94.6278C75.242 93.6172 76.8209 93.6186 76.8771 94.6278C77.0243 97.3126 75.3773 99.2167 73.2778 100.495L73.2879 100.505L73.2979 100.516C73.6257 100.89 73.9763 101.236 74.3549 101.559C76.6216 103.497 79.4889 105.105 82.355 106.164C85.7175 107.407 89.0773 107.779 92.5548 106.774C94.3732 106.249 96.0899 105.438 97.6674 104.39C98.1491 104.07 98.6107 103.728 99.0536 103.361C98.6348 102.786 98.3003 102.166 98.0193 101.509C97.4548 100.187 96.9877 98.3957 97.5644 96.9995C97.7062 96.6555 98.2695 96.4432 98.4662 96.8813C99.0081 98.0799 99.2342 99.3753 99.8658 100.547C100.107 100.993 100.384 101.416 100.694 101.816C100.694 101.837 103.065 102.244 103.065 102.244C105.931 102.243 108.63 103.349 111.165 104.73C112.664 105.547 114.137 106.416 115.606 107.285L118.476 108.986C118.688 109.111 118.925 109.232 119.161 109.361C118.885 107.988 118.749 106.587 118.84 105.199C118.978 103.106 119.789 100.816 121.937 100.07C122.952 99.7166 124.127 99.8255 125.113 100.218C125.568 100.399 126.063 100.64 126.486 100.961C126.691 100.036 127.554 99.343 128.421 99.0368C128.702 98.9372 128.989 98.8741 129.281 98.8432C129.272 98.6948 129.272 98.5447 129.274 98.3902L129.276 98.2734C129.289 97.5881 129.284 96.9028 129.269 96.2188C129.242 94.922 129.181 93.6522 129.05 92.3595C128.94 91.2893 128.75 90.2314 128.609 89.1656L128.55 88.7075C128.431 87.8049 128.231 86.6809 128.938 85.9833ZM42.7233 173.488L42.484 173.345C41.7005 172.881 40.8934 172.453 39.9442 172.668C39.04 172.872 38.3985 173.61 38.0615 174.441C37.9022 174.833 37.8191 175.229 37.7577 175.647C37.7232 175.881 37.6999 176.117 37.659 176.35L37.6453 176.423C37.6267 176.516 37.5984 176.645 37.5725 176.757C37.3258 176.648 37.0773 176.475 36.8754 176.372L36.7126 176.29C36.3304 176.099 35.9328 175.917 35.5164 175.829C34.6143 175.637 33.6136 175.914 33.0979 176.726C32.6568 177.42 32.6659 178.238 32.8346 179.016L32.8466 179.07C32.9198 179.393 33.2981 180.685 33.8483 180.497C34.3833 180.313 34.4548 179.599 34.4953 179.123L34.4984 179.078C34.5166 178.719 34.4458 177.964 34.8505 177.828C35.3561 177.658 36.329 178.435 36.7693 178.639C37.5567 179.002 38.4218 179.109 39.0626 178.402C39.6371 177.769 39.6856 176.842 39.8342 176.038L39.8726 175.836C39.9515 175.428 40.1041 174.776 40.5539 174.792C40.9215 174.806 41.325 175.188 41.628 175.37C41.9623 175.57 42.3096 175.737 42.6724 175.88C43.5193 176.212 44.4608 176.319 45.3617 176.22C45.8837 176.164 46.2236 175.913 46.4081 175.42C46.4706 175.276 46.5182 175.126 46.5511 174.972C46.8436 173.868 45.2455 173.081 44.6562 174.068C43.9763 174.042 43.3435 173.858 42.7233 173.488ZM141.081 166.108C140.594 165.759 139.932 165.834 139.496 166.227L139.47 166.251C139.35 166.369 139.077 166.673 138.901 166.941L138.846 166.898C138.837 166.891 138.829 166.884 138.82 166.878L138.796 166.858C138.436 166.552 138.06 166.272 137.596 166.147C136.389 165.821 135.291 166.633 134.764 167.674C134.514 168.168 134.407 168.678 134.282 169.211L134.271 169.26C134.221 169.508 134.156 170.011 133.939 170.134C133.859 170.179 133.679 170.09 133.5 169.986C133.092 169.75 132.726 169.449 132.327 169.2C131.389 168.616 130.324 168.374 129.271 168.795C128.229 169.212 127.483 170.196 127.465 171.342C127.452 172.187 128.015 173.661 129.075 173.558C129.288 173.537 129.561 173.406 129.596 173.16C129.687 172.508 129.175 171.707 129.762 171.168C130.33 170.647 130.919 171.085 131.433 171.446L131.801 171.706C132.4 172.123 133.016 172.506 133.774 172.551C134.732 172.609 135.617 172.077 136.099 171.258C136.536 170.517 136.542 169.679 136.883 168.918C136.957 168.752 137.15 168.599 137.086 168.522C137.344 168.658 137.677 169.047 137.838 169.156C138.64 169.699 139.711 169.695 140.414 168.975C140.694 168.689 140.872 168.335 141.079 167.998C141.154 167.876 141.248 167.763 141.316 167.637C141.341 167.591 141.382 167.42 141.416 167.267L141.468 167.024L141.473 166.985C141.518 166.617 141.389 166.328 141.081 166.108ZM110.211 162.9C109.29 162.414 108.155 162.599 107.325 163.187C106.395 163.847 105.939 164.86 105.629 165.931C105.403 166.711 105.294 167.786 104.645 168.351C103.89 169.008 102.623 168.311 101.826 168.052C100.861 167.738 99.7017 167.61 98.7603 168.073C97.8377 168.528 97.3931 169.454 97.2978 170.447C97.2089 171.373 97.3411 172.593 97.8673 173.369C97.9191 173.445 98.018 173.425 98.0507 173.344C98.3966 172.489 98.33 171.51 98.6108 170.625C98.9107 169.681 99.6134 169.481 100.506 169.735C101.436 170 102.288 170.496 103.246 170.673C104.266 170.861 105.276 170.667 106.081 169.989C106.757 169.42 107.167 168.59 107.444 167.763C107.714 166.957 107.758 165.878 108.333 165.208C108.478 165.04 108.731 164.836 108.965 164.814C109.314 164.782 109.44 165.042 109.722 165.241C110.465 165.768 111.651 165.779 112.106 164.852C112.255 164.549 112.329 164.119 112.106 163.822C111.715 163.302 111.395 163.306 110.879 163.418C110.863 163.404 110.844 163.387 110.824 163.362L110.808 163.343C110.672 163.17 110.407 163.003 110.211 162.9ZM73.7444 157.434C73.7139 156.738 72.8794 156.069 72.221 156.556C72.1148 156.633 72.0103 156.713 71.9078 156.796L71.8658 156.841V156.841C71.7433 156.841 71.6291 156.808 71.5082 156.77L71.2966 156.701C70.7411 156.525 70.207 156.382 69.614 156.513C68.5938 156.737 67.9464 157.621 67.6141 158.56C67.3043 159.434 67.406 160.326 67.2607 161.223C67.123 162.073 66.688 162.405 65.8713 162.223L65.8294 162.213C64.2049 161.822 62.354 160.73 60.9298 162.228C59.3912 163.846 60.3977 166.415 62.0819 167.455C62.1555 167.501 62.2368 167.426 62.2201 167.348C61.9964 166.303 61.3435 165.306 61.5623 164.197C61.7139 163.428 62.2459 163.064 63.0051 163.187C64.6019 163.445 66.0954 164.723 67.7332 163.795C68.5512 163.332 69.002 162.461 69.2058 161.569C69.3894 160.767 69.3373 159.862 69.6891 159.105C70.0739 158.276 70.7221 158.877 71.4205 158.99C72.4086 159.15 73.797 158.63 73.7444 157.434ZM127.316 132.677C127.319 131.985 126.249 131.985 126.246 132.677C126.206 141.441 122.123 149.542 121.39 158.22C121.332 158.909 122.403 158.905 122.461 158.22C123.194 149.54 127.276 141.455 127.316 132.677ZM38.9257 147.023C38.3621 146.382 37.5365 146.581 36.8659 146.902C35.8587 147.385 34.8947 147.927 33.9707 148.554C33.7434 148.708 33.8867 149.043 34.1543 148.991C34.832 148.86 35.4916 148.714 36.1491 148.501C36.6433 148.342 37.1576 148.11 37.6729 148.028C37.6406 148.147 37.6014 148.264 37.5553 148.379C37.4707 148.613 37.3725 148.843 37.2891 149.079C37.1233 149.548 36.9739 150.024 36.829 150.501L36.7569 150.739C36.4557 151.738 36.1631 153.191 37.553 153.499C38.0687 153.612 38.5798 153.387 39.0596 153.209L39.1584 153.174L40.9082 152.551C41.1167 152.477 41.5029 152.425 41.6757 152.295L41.6481 152.428C41.6123 152.605 41.5772 152.779 41.5013 152.955L41.4589 153.053C41.0242 154.042 40.4762 155.033 40.9832 156.126C41.4175 157.064 42.4442 157.509 43.4335 157.242C44.3737 156.99 45.0541 155.926 44.5673 155.001C44.386 154.657 43.8552 154.488 43.518 154.703L43.4274 154.764C43.3212 154.834 43.1384 154.953 43.1339 154.975C43.1088 154.982 43.0824 154.988 43.0556 154.995C43.1124 154.827 43.1506 154.569 43.2004 154.455L43.3836 154.038C43.7242 153.253 44.0195 152.454 43.7596 151.574C43.0152 149.054 40.491 150.487 38.629 151.206C38.6562 151.1 38.6831 150.994 38.7058 150.891C38.7861 150.526 38.8739 150.163 38.9608 149.8L39.1389 149.051C39.2993 148.36 39.4241 147.59 38.9257 147.023ZM134.192 144.21C134.193 144.151 134.12 144.105 134.069 144.14C132.879 144.943 132.082 146.621 132.529 148.051C132.747 148.745 133.209 149.354 133.857 149.691C134.663 150.11 135.553 149.951 136.4 149.771L136.76 149.694C137.014 149.641 137.264 149.601 137.522 149.673C137.61 149.697 137.713 149.775 137.797 149.792C137.763 149.851 137.726 149.954 137.707 149.992L137.646 150.116C137.584 150.242 137.524 150.372 137.486 150.505C137.36 150.947 137.391 151.423 137.596 151.836C137.978 152.606 138.779 153.04 139.613 153.113C140.109 153.157 141.361 152.721 141.657 153.25C142.244 154.3 143.917 153.594 143.592 152.431C143.372 151.644 142.749 151.136 141.976 150.923C141.564 150.81 141.138 150.825 140.719 150.872C140.555 150.89 140.392 150.915 140.228 150.933L140.104 150.944C140.136 150.942 139.764 150.933 139.614 150.923L139.646 150.836C139.651 150.824 139.655 150.814 139.659 150.805C139.826 150.448 139.949 150.092 139.939 149.692C139.921 148.972 139.456 148.343 138.846 147.996C138.284 147.676 137.614 147.549 136.975 147.62C136.272 147.699 135.273 148.258 134.582 147.963C134.062 147.741 133.885 146.967 133.877 146.46C133.865 145.696 134.171 144.971 134.192 144.21ZM85.7045 139.199C83.7892 138.336 82.1445 139.81 81.0206 141.221C80.9626 141.294 81.0356 141.416 81.127 141.36L81.2762 141.266C82.1939 140.688 83.2114 140.005 84.3485 140.202C85.3781 140.38 85.6331 141.057 85.4282 141.979L85.368 142.238C85.1502 143.187 84.9833 144.17 85.5256 145.053C86.0377 145.887 87.0368 146.251 87.9724 146.273C89.0518 146.299 89.9834 145.795 90.9703 145.443L91.0483 145.416C91.4674 145.27 92.9963 144.891 93.0175 145.756C93.0274 146.151 92.6059 146.615 92.4439 146.971C92.2318 147.436 92.0906 147.924 92.0932 148.44C92.0995 149.728 93.1691 150.773 94.4347 150.149C94.9267 149.906 95.0536 149.209 94.7969 148.761C94.4356 148.13 94.2892 148.163 94.5425 147.5L94.6156 147.314C94.9271 146.515 95.1753 145.693 94.8252 144.855C94.1259 143.181 92.0292 142.978 90.5313 143.533L90.4766 143.553C89.5442 143.916 86.7519 145.37 86.9444 143.314C87.0202 142.505 87.2648 141.728 87.0938 140.91C86.9348 140.15 86.4067 139.515 85.7045 139.199ZM76.4757 132.324C76.1261 131.706 74.9524 131.927 75.0496 132.712L75.0808 132.957C75.1206 133.291 75.1293 133.605 74.8992 133.902C74.6201 134.263 74.1423 134.372 73.7087 134.317C72.7905 134.2 72.205 133.346 71.1945 133.545C70.3743 133.707 69.8079 134.381 69.48 135.116C69.1327 135.895 69.1401 136.738 68.8815 137.54C68.5836 138.461 67.9485 138.419 67.1553 138.096L66.9845 138.026C66.2257 137.709 65.4644 137.357 64.6189 137.509C63.2146 137.76 62.0053 139.929 63.321 140.976C63.5585 141.165 63.9736 141.066 63.9635 140.709L63.9622 140.641C63.9556 139.99 64.119 139.151 64.8612 138.998C65.6484 138.835 66.5378 139.556 67.2687 139.764C69.1619 140.302 70.2404 138.871 70.5619 137.179L70.5736 137.114C70.6763 136.521 70.7574 135.425 71.3743 135.148C71.7034 135 72.0543 135.364 72.3293 135.51C72.7565 135.738 73.2149 135.883 73.6982 135.92C75.4861 136.056 77.5176 134.168 76.4757 132.324ZM121.216 129.987C120.627 129.73 119.748 129.873 119.604 130.645L119.517 131.131C119.346 132.069 119.073 133.243 118.155 133.581C117.58 133.792 116.92 133.422 116.405 133.196C115.786 132.924 115.183 132.692 114.505 132.627C113.13 132.496 112.106 133.295 111.619 134.544L111.577 134.655C111.185 135.704 110.655 137.711 111.513 138.562C111.639 138.686 111.892 138.747 112.045 138.631C112.553 138.248 112.681 137.62 112.856 137.031L112.871 136.98C113.056 136.368 113.207 135.694 113.541 135.143C114.162 134.118 115.781 135.288 116.56 135.558C117.839 136.002 119.165 135.743 120.142 134.793C120.76 134.194 121.125 133.434 121.376 132.631C121.536 132.714 121.702 132.786 121.882 132.835C122.564 133.02 123.373 132.923 123.893 132.403C124.868 131.429 124.339 129.681 122.852 129.964C122.56 130.019 122.368 130.3 122.333 130.587L122.313 130.632V130.632C121.939 130.508 121.53 130.123 121.216 129.987ZM52.3187 121.281C50.9295 119.846 48.5188 120.624 47.5687 122.146C47.3716 122.462 47.6971 122.862 48.0431 122.766C48.8702 122.537 50.0372 121.637 50.9112 122.21C51.5591 122.635 51.2066 123.746 51.1474 124.367L51.1388 124.46C51.0638 125.306 51.0468 126.464 51.7029 127.097C52.0806 127.461 52.6598 127.412 53.1579 127.36L53.3162 127.344C53.9033 127.284 54.4866 127.18 55.0489 126.999C55.5659 126.832 56.0558 126.606 56.5416 126.366L56.663 126.306C56.878 126.199 57.5951 125.774 57.8098 126.041C57.9218 126.18 57.6443 126.79 57.5866 126.926C57.3688 127.437 57.0918 127.919 56.8921 128.439C56.54 129.357 56.5106 130.391 57.005 131.266C57.484 132.115 58.5219 132.802 59.4418 132.15C59.9685 131.777 59.967 131.098 59.4418 130.725C59.1639 130.528 58.8837 130.397 58.7689 130.066C58.6191 129.634 58.8119 129.176 58.9986 128.776L59.222 128.3C59.7171 127.237 60.2117 126.015 59.5201 124.929C58.8058 123.808 57.3542 123.79 56.2561 124.257C55.6294 124.524 55.0575 124.882 54.4044 125.088C53.9525 125.231 53.499 125.326 53.0361 125.378C52.933 124.819 53.0789 124.193 53.0804 123.637C53.0828 122.793 52.9263 121.909 52.3187 121.281ZM123.952 101.316C121.607 100.97 120.473 103.076 120.311 105.104C120.165 106.945 120.462 108.791 120.926 110.581C121.1 111.245 121.296 111.901 121.5 112.546C121.83 113.582 122.187 114.616 122.622 115.613C122.754 115.914 122.888 116.217 123.038 116.507C123.551 116.93 123.99 117.499 124.39 118.046L124.652 118.408V118.408L124.722 118.505C125.401 119.438 125.98 120.405 126.454 121.457C126.905 122.46 127.241 123.504 127.502 124.571L127.566 124.837C127.767 125.658 128.063 126.637 127.705 127.401C128.407 127.619 129.106 127.816 129.852 127.921C130.883 128.066 131.954 128.076 132.994 128.038C133.999 128.001 135.002 127.922 136.002 127.815L136.723 127.736C136.797 127.727 136.872 127.718 136.947 127.709C136.918 127.674 136.894 127.635 136.877 127.592C136.62 126.974 136.653 126.257 136.625 125.592L136.621 125.518C136.584 124.781 136.561 124.043 136.552 123.304C136.534 121.917 136.572 120.526 136.723 119.146C136.854 117.938 137.059 116.73 137.379 115.557C137.701 114.368 138.194 113.251 138.649 112.109C139.098 110.98 139.469 109.821 139.429 108.59C139.403 107.807 139.232 107.047 138.942 106.328C138.928 106.339 138.911 106.347 138.891 106.345C137.98 106.312 137.116 106.047 136.236 105.824C135.302 105.586 134.345 105.391 133.39 105.276L133.187 105.252C132.391 105.162 131.523 105.118 130.788 105.461C129.991 105.834 129.49 106.661 129.187 107.455L129.154 107.547C128.616 109.052 128.74 111.062 130.401 111.774C130.916 111.996 132.092 112.132 132.357 111.43C132.476 111.11 132.231 110.638 132.139 110.335C132.031 109.975 131.96 109.62 131.968 109.244C131.974 108.914 132.225 108.665 132.545 108.638L132.574 108.637C133.155 108.611 134.352 107.939 134.469 108.907C134.491 109.095 134.348 109.292 134.197 109.384C133.892 109.565 133.573 109.686 133.242 109.76C133.287 109.962 133.351 110.159 133.414 110.355C133.452 110.336 133.493 110.324 133.537 110.32C134.028 110.28 134.514 110.358 135.005 110.363L135.273 110.365C135.655 110.369 135.987 110.39 136.356 110.588C136.698 110.77 136.637 111.229 136.356 111.425C135.619 111.938 134.371 111.637 133.603 111.116C133.636 111.381 133.62 111.651 133.508 111.934C133.176 112.776 132.225 113.195 131.374 113.231C130.618 113.263 129.895 113.024 129.292 112.605C129.169 113.047 128.971 113.471 128.885 113.93C128.773 114.532 128.906 115.236 128.698 115.802C128.489 116.371 127.682 116.753 127.215 116.194C126.531 115.377 126.744 114.083 127.345 113.255C127.665 112.817 128.245 112.314 128.837 112.235C128.426 111.847 128.097 111.367 127.889 110.838C127.875 110.844 127.857 110.846 127.839 110.84C125.916 110.312 124.87 108.563 124.805 106.726C124.663 106.828 124.516 106.919 124.362 107.001C123.994 107.2 123.522 107.025 123.408 106.613C123.304 106.229 123.608 105.754 124.035 105.786C124.278 105.807 124.523 105.808 124.765 105.768C124.799 105.762 124.831 105.756 124.864 105.749C124.886 105.608 124.914 105.467 124.948 105.327C124.222 105.41 123.462 105.291 122.759 105.135C122.155 105.002 122.295 104.035 122.904 104.058L123.002 104.063C123.801 104.101 124.98 104.231 125.664 103.722C125.785 103.548 125.919 103.382 126.063 103.227C126.082 103.188 126.098 103.146 126.113 103.103C126.48 102.039 124.737 101.431 123.952 101.316ZM102.908 116.288C101.996 116.043 101.035 116.377 100.407 117.069C99.88 117.65 99.6068 118.365 99.3627 119.095L99.2234 119.515C99.0204 120.11 98.7874 120.582 98.0623 120.355C97.1329 120.064 96.3272 119.558 95.3166 119.598C94.3979 119.634 93.4989 120.031 92.8593 120.696C92.2051 121.377 91.8928 122.325 92.0317 123.259L92.0407 123.316C92.1131 123.746 92.7397 125.282 93.4039 124.575C93.7003 124.26 93.6418 123.911 93.7122 123.51C93.7791 123.128 93.9223 122.754 94.1568 122.445C94.5727 121.896 95.2416 121.682 95.8954 121.876C96.7579 122.132 97.5197 122.66 98.4488 122.672C99.4262 122.686 100.256 122.177 100.795 121.377C101.23 120.732 101.386 119.977 101.692 119.276L101.721 119.209C101.979 118.632 102.154 118.423 102.743 118.699L102.949 118.798C103.83 119.219 104.822 119.604 105.734 119.011C106.581 118.46 106.942 117.352 106.23 116.546C105.837 116.101 104.927 116.177 104.671 116.748C104.627 116.846 104.585 116.945 104.544 117.045C104.466 117.021 104.39 116.992 104.318 116.952C103.84 116.735 103.425 116.427 102.908 116.288ZM76.2655 109.768C75.2245 109.204 74.3553 110.313 74.5216 111.313L74.5297 111.357C74.5358 111.387 74.5499 111.453 74.5674 111.529C74.5143 111.522 74.4617 111.513 74.4093 111.499L74.1674 111.47C73.7872 111.425 73.4186 111.402 73.038 111.525C72.1398 111.814 71.6981 112.691 71.6765 113.59C71.6549 114.485 72.1163 115.207 72.2518 116.063C72.3905 116.938 71.4888 116.688 70.9002 116.624L70.8771 116.622C70.0583 116.538 69.1974 116.537 68.5169 117.073C67.814 117.626 67.5026 118.583 67.6019 119.459C67.6916 120.25 68.1844 121.467 69.0771 121.592C69.1653 121.604 69.2656 121.585 69.3108 121.496C69.6718 120.791 69.1695 120.013 69.2263 119.269C69.2888 118.451 69.808 118.315 70.524 118.368C71.2189 118.419 71.912 118.567 72.5982 118.359C73.3427 118.133 73.883 117.492 74.0358 116.735C74.2043 115.901 73.8947 115.125 73.6938 114.332C73.627 114.069 73.5943 113.804 73.6403 113.535C73.6502 113.477 73.7005 113.423 73.7187 113.4C73.833 113.378 74.004 113.433 74.1018 113.444L74.2405 113.458C74.9945 113.526 75.7209 113.48 76.2596 112.855C76.5357 112.534 76.6377 112.142 76.6102 111.729L76.5963 111.562C76.5816 111.401 76.5534 111.189 76.4702 111.101L76.4692 111.096V111.096C76.497 111.059 76.5235 111.02 76.5478 110.98L76.5712 110.939C76.8022 110.553 76.6683 109.986 76.2655 109.768ZM129.601 99.9598C128.564 99.9598 127.584 100.3 126.8 101.226C127.08 101.493 127.303 101.803 127.427 102.168C127.81 101.957 128.217 101.792 128.633 101.674C129.903 101.318 131.64 101.324 132.708 102.199C133.267 102.655 132.653 103.475 132.051 103.334C131.511 103.208 131.043 102.974 130.477 102.947C129.986 102.923 129.504 102.987 129.033 103.13C128.315 103.348 127.662 103.76 127.182 104.328C127.021 104.519 126.881 104.726 126.763 104.949C125.866 106.659 126.542 109.11 127.78 110.516C127.294 108.896 127.778 106.985 128.746 105.643C129.91 104.027 131.652 103.843 133.488 104.096L133.548 104.104C135.324 104.355 137.522 104.795 138.849 106.105C138.717 105.803 138.564 105.51 138.393 105.226C137.387 103.562 135.718 102.264 133.987 101.339C133.696 101.181 133.403 101.036 133.112 100.902C132.003 100.39 130.766 99.9598 129.601 99.9598ZM130.168 87.2639L130.164 87.2828C130.163 87.2863 130.162 87.2899 130.161 87.2935C130.1 87.8399 130.245 88.4671 130.319 89.0185L130.329 89.0968C130.484 90.3519 130.689 91.6083 130.756 92.8728C130.821 94.0888 130.796 95.3501 130.65 96.5608L130.628 96.7334C130.543 97.3932 130.492 98.1672 130.27 98.8445C131.123 98.9265 131.977 99.2019 132.753 99.495C133.031 99.601 133.308 99.7126 133.584 99.831C133.239 97.9885 133.054 96.1193 132.68 94.2824L132.606 93.9168C132.199 91.8848 131.816 89.8397 130.764 88.0218C130.623 87.7799 130.472 87.577 130.301 87.3606C130.263 87.3111 130.219 87.2788 130.168 87.2639Z" fill="black"/>
<path fill-rule="evenodd" clip-rule="evenodd" d="M85.3459 43.8553C91.8591 43.8553 104.428 51.4517 104.428 51.4517C104.428 51.4517 110.329 76.3412 109.14 83.4496C107.951 90.5581 101.757 99.2667 91.5031 99.2667C81.249 99.2667 78.4631 95.6256 75.9966 93.9708C73.53 92.3159 68.5587 84.7848 68.5587 84.7848C68.5587 84.7848 65.1854 85.8421 64.1952 85.2303C62.7892 84.3615 62.9599 82.0768 62.5155 79.8675C62.1881 78.2393 61.073 76.6417 61.0734 75.7352C61.0734 72.4465 63.3953 72.6815 64.565 71.8934C62.0019 69.3526 62.6765 60.5411 65.9053 55.9132C69.134 51.2854 78.8327 43.8553 85.3459 43.8553Z" fill="#EDB98A"/>
<path fill-rule="evenodd" clip-rule="evenodd" d="M97.0612 38.242C97.6309 38.1503 98.0888 38.9563 97.4857 39.2551C94.9181 40.5281 92.2225 41.4858 89.6085 42.6461C90.9438 42.8074 92.3056 43.0621 93.6214 43.4565C95.1356 42.8302 96.6904 42.3228 98.2915 41.9641L98.7989 41.8509C100.429 41.491 102.264 41.1506 103.848 41.7021C104.392 41.8915 104.358 42.583 103.848 42.7833C102.928 43.144 101.913 43.2386 100.94 43.3517C99.9601 43.4655 98.9911 43.6045 98.0256 43.8095C97.3222 43.9588 96.6223 44.1323 95.9288 44.3295C96.3638 44.5338 96.788 44.7578 97.1971 45.006C99.4014 46.3436 101.408 47.8708 103.087 49.8529C104.717 51.7765 105.999 53.955 106.872 56.3262C107.1 56.9471 107.247 57.6068 107.341 58.2619C107.417 58.7865 107.37 59.3005 107.383 59.818C107.41 59.8288 107.434 59.8496 107.442 59.881C107.754 61.1285 107.793 62.4841 107.892 63.7666C107.994 65.0969 108.099 66.4268 108.187 67.7584C108.274 69.083 108.26 70.4654 108.506 71.771C108.73 72.9569 109.395 74.0098 109.769 75.1577C112.015 82.0448 109.823 90.2974 104.362 95.054C101.605 97.4554 98.1678 98.9776 94.5613 99.4795C92.6861 99.7404 90.8243 99.7336 88.9514 99.4556C88.0624 99.3238 87.184 99.1255 86.3261 98.8563L86.0081 98.757C85.6519 98.645 85.2904 98.5239 84.9617 98.359C84.4929 98.1237 84.2898 97.7278 84.1253 97.2465C84.0255 96.9543 84.1866 96.5058 84.4761 96.3785L84.5703 96.3379C85.0664 96.1283 85.4663 96.0382 86.0077 96.2436C86.4439 96.4092 86.8868 96.5558 87.3353 96.6837C88.2251 96.9375 89.1376 97.1262 90.0582 97.217C91.9134 97.4003 93.7905 97.3068 95.6104 96.8965C98.8804 96.1593 101.876 94.5046 104.143 92.0088C106.359 89.5702 107.748 86.4595 108.28 83.2113C108.543 81.5996 108.565 79.9082 108.353 78.2889C108.243 77.4487 108.056 76.6151 107.813 75.8039C107.677 75.346 107.5 74.9022 107.357 74.447C107.228 74.0347 107.188 73.5938 107.129 73.1636L107.115 73.0645C106.954 71.9705 107.009 70.8564 107.01 69.7541C107.011 68.6454 107.005 67.5364 107.016 66.4276L107.027 65.174C107.031 64.756 107.035 64.338 107.042 63.9201C106.891 63.9445 106.702 63.832 106.687 63.6499C106.634 62.9761 106.482 62.3219 106.398 61.6519L106.376 61.4756C106.297 60.8598 106.201 60.2561 105.945 59.6865C105.426 58.5299 105.06 57.3095 104.568 56.1415C103.59 53.821 102.133 51.6799 100.329 49.9322C98.163 47.834 95.4794 46.344 92.6032 45.494C92.5117 45.5325 92.4196 45.5693 92.3286 45.6087C90.5072 46.3997 88.7781 47.4173 87.1363 48.5352C86.2901 49.1114 85.4758 49.7334 84.6985 50.4011C84.3201 50.7262 83.9408 51.051 83.5709 51.3861C83.4127 51.5294 83.2561 51.6746 83.1012 51.8218C82.9979 51.9196 82.8956 52.0184 82.7939 52.1179C82.5598 52.2835 82.5547 52.5165 82.7786 52.8164C82.8583 52.7834 82.9099 52.9155 82.8365 52.9547C82.393 53.1918 82.0445 52.6852 82.1388 52.2652C82.2134 51.9327 82.5197 51.6275 82.7353 51.3664L82.7641 51.331C83.0992 50.9143 83.4426 50.5006 83.8069 50.109C85.7256 48.0463 87.9901 46.3408 90.4451 44.9824C89.413 44.7963 88.367 44.6893 87.3211 44.663C86.7191 44.6481 86.1193 44.6579 85.5225 44.6915C84.592 45.2005 83.6732 45.7305 82.772 46.2928C82.0198 46.7622 81.2787 47.2496 80.5503 47.7555C80.1708 48.019 79.7958 48.2886 79.4222 48.5603C79.2339 48.6975 78.9462 48.8602 78.7951 49.0324L78.7836 49.0465C78.6779 49.1856 78.3722 49.7927 78.7697 49.7759C78.8121 49.7741 78.8203 49.8403 78.7796 49.8502C78.4171 49.9389 78.3699 49.5628 78.432 49.2791C78.587 48.5717 79.5252 48 80.0528 47.5588L80.0866 47.5302C81.1542 46.6174 82.2571 45.7459 83.3903 44.9165C79.8587 45.4624 76.4981 46.8579 73.5769 49.0011C69.823 51.7549 67.0016 55.6363 65.1217 59.882C64.2285 61.8995 63.4877 64.0496 63.2227 66.2485C62.9852 68.2193 63.238 70.381 64.7658 71.7741C64.849 71.7659 64.9321 71.7574 65.0153 71.7516L65.1449 71.7437C66.233 71.6852 68.5022 71.7595 68.4291 73.2669C68.426 73.3296 68.3312 73.3686 68.3007 73.3018C67.9439 72.5218 66.9018 72.6619 66.1591 72.7853L65.7413 72.8545C64.8736 72.9996 63.987 73.1861 63.2242 73.6403C62.4925 74.0761 61.8514 74.7727 61.7102 75.6449C61.5708 76.5046 62.1376 77.1529 62.626 77.7852C63.1797 78.5021 63.6248 79.2437 63.678 80.1745C63.7311 81.1115 63.2749 82.0549 63.4072 82.9813C63.7024 85.0512 66.695 84.3843 67.9815 84.0662C68.3672 83.9709 68.8989 84.1192 69.0768 84.5148C69.928 86.408 71.0853 88.1358 72.543 89.6098C73.2637 90.3387 74.0436 91.0053 74.8866 91.5862C75.7389 92.1735 76.5663 92.6555 77.1506 93.5432C77.3771 93.8874 77.0697 94.2716 76.7183 94.3014C75.5668 94.3991 74.6277 93.829 73.7191 93.1846C72.8041 92.5357 71.9378 91.8124 71.1494 91.0124C69.7412 89.5839 68.5679 87.9297 67.6911 86.1234L67.5704 86.1462C65.5952 86.512 63.4049 86.5101 62.1226 84.6924C61.5522 83.8839 61.4887 82.9365 61.6363 81.9838C61.7801 81.0558 62.117 80.1864 61.5963 79.3198C61.1236 78.5331 60.4508 77.8853 60.181 76.9827C59.9202 76.1106 60.0679 75.1858 60.4571 74.3787C61.2019 72.835 62.7385 72.0735 64.3472 71.8259C62.4101 70.6522 61.7605 68.251 61.7572 66.0563C61.7529 63.3078 62.7182 60.5302 63.8127 58.0506C65.8773 53.3729 69.3606 49.2513 73.6111 46.4443C77.5557 43.8395 82.3109 42.4358 87.0349 42.478C88.2483 41.7461 89.4942 41.0684 90.7621 40.4378L91.0331 40.304C92.975 39.3542 94.9123 38.5886 97.0612 38.242ZM63.9015 76.297C64.1366 75.7196 65.1702 75.7214 65.6581 75.7409L65.7477 75.7451C67.2323 75.8234 69.6929 76.4332 69.997 78.1038C70.0479 78.3829 69.87 78.751 69.5323 78.7178C69.0438 78.6698 68.6733 78.58 68.2719 78.2906L68.0687 78.1445C67.7308 77.9028 67.3944 77.6713 67.024 77.4725C66.5698 77.229 66.1014 77.0531 65.607 76.9124C65.4043 76.8549 65.2001 76.7948 64.9965 76.7407C64.8618 76.7049 64.7261 76.6735 64.5897 76.6462C64.4296 76.5469 64.3254 76.6085 64.2775 76.8306C64.3404 76.8524 64.3346 76.9623 64.2608 76.9543C63.9677 76.923 63.7873 76.577 63.9015 76.297ZM68.6187 73.873C68.6187 73.8661 68.6272 73.8648 68.6307 73.8689L68.632 73.873V74.4922C68.632 74.4992 68.6235 74.5006 68.6201 74.4964L68.6187 74.4922V73.873Z" fill="black"/>
<path fill-rule="evenodd" clip-rule="evenodd" d="M94.663 89.557C93.7635 89.1885 92.961 88.5738 92.3743 87.7886C92.1703 87.5156 92.1174 87.2273 92.1602 86.9637C92.2083 86.6672 92.3829 86.3985 92.6211 86.2183C92.86 86.0375 93.1589 85.9484 93.4478 85.9938C93.6988 86.0333 93.9487 86.1714 94.1465 86.4577L94.1879 86.5149C94.5367 86.9889 94.9912 87.3777 95.5092 87.6284C96.0084 87.87 96.5667 87.9827 97.1444 87.9171C98.2448 87.7923 99.0032 87.1947 99.8094 86.3831C99.9093 86.2806 100.009 86.1749 100.11 86.0675C100.173 85.9702 100.261 85.9076 100.359 85.8748C100.468 85.8384 100.59 85.8404 100.703 85.8799C100.811 85.9179 100.908 85.9899 100.973 86.0858C101.035 86.1769 101.07 86.2895 101.059 86.419C100.985 87.2601 100.547 88.0107 99.9252 88.6001C99.2344 89.2547 98.3188 89.7076 97.4567 89.8664C96.507 90.0414 95.5393 89.916 94.663 89.557V89.557ZM97.9047 76.5817C98.9151 77.1985 100.455 78.6367 99.3677 80.1658C98.0883 81.5141 96.2462 79.9682 95.3384 79.2691C94.4967 78.7272 93.551 80.1208 94.3319 80.7535C100.891 85.6307 103.553 76.7429 98.4158 75.8565C97.8501 75.7588 97.64 76.3909 97.9047 76.5817ZM86.15 70.9082C86.2617 69.5165 88.3721 69.2005 88.582 70.5776C88.77 71.8112 88.5487 72.9444 87.9954 74.055C87.4668 75.116 86.1381 74.621 86.0376 73.6549C85.9029 72.3597 86.0806 71.7738 86.15 70.9082ZM102.215 70.2921C102.509 69.9051 102.934 69.6409 103.443 69.7902C105.033 70.2569 104.564 72.5242 104.006 73.6278C103.703 74.2272 102.722 74.3791 102.278 73.8514C101.556 72.9909 101.21 71.2723 102.128 70.4247C102.153 70.3809 102.181 70.3367 102.215 70.2921ZM87.973 64.8187L88.2242 64.7746C89.0013 64.6396 89.9676 64.5099 90.5173 65.1374C90.8089 65.4701 90.9092 66.0885 90.5173 66.407C89.828 66.9673 89.0658 66.7502 88.2397 66.7976C87.5589 66.8368 86.9046 66.95 86.2489 67.1382C84.8102 67.5512 83.638 68.305 82.4093 69.1328C82.248 69.2414 82.0834 69.0343 82.1604 68.8828C82.8697 67.4876 84.2442 66.3415 85.6211 65.6429C86.3559 65.27 87.1601 64.9607 87.973 64.8187ZM100.765 64.1937L100.958 64.2333C103.05 64.6725 105.768 65.5499 106.759 67.6138C106.797 67.9057 106.757 67.9682 106.724 68.0091L106.714 68.0227C106.687 68.0576 106.666 68.1057 106.54 68.1454C106.505 68.1371 106.469 68.1282 106.434 68.1188C105.98 67.9993 105.62 67.8346 105.272 67.6637L104.895 67.4771C104.458 67.2616 104.016 67.054 103.548 66.9007C102.55 66.5736 101.523 66.3432 100.48 66.2202C100.254 66.1936 100.036 66.1169 99.8644 65.9856C99.7014 65.861 99.5769 65.6884 99.5201 65.4591C99.4465 65.1622 99.4677 64.9375 99.6263 64.6697C99.7455 64.4686 99.9162 64.3292 100.112 64.2491C100.312 64.1675 100.539 64.1483 100.765 64.1937Z" fill="black"/>
<path fill-rule="evenodd" clip-rule="evenodd" d="M98.0519 81.817C96.5639 81.1439 93.8919 81.7313 92.9218 81.9648C90.6666 82.508 88.3978 83.6818 87.6967 85.5207C86.9066 87.5932 88.483 88.2456 88.7149 88.1391C90.2761 88.2495 92.1353 87.2639 93.7713 87.0095C95.0994 86.8012 96.5005 86.6194 97.7449 85.9107C98.6534 86.4126 100.705 86.6839 102.361 87.1228C103.772 87.4963 104.383 88.3065 105.69 88.1342C107.258 87.9278 106.616 84.6177 104.87 83.2768C102.958 81.8092 99.7251 81.2141 98.0519 81.817ZM100.998 95.9703C99.6964 96.2891 99.609 93.4235 99.4631 92.4111C99.3492 91.6202 98.7066 89.5805 97.0774 89.6685C95.4483 89.7565 94.8359 91.4654 94.9185 92.5283C94.9721 93.2175 95.6046 96.7089 93.5858 97.1506C92.2988 97.146 90.8098 97.0588 89.4566 96.8082C87.8638 96.4459 85.7926 95.1775 85.2455 97.6754C85.0486 98.5745 92.0649 101.245 95.1784 101.487C98.3359 102.13 102.03 101.142 104.278 98.7157C104.79 98.1638 106.23 95.8731 106.333 95.3119C106.548 94.1327 106.049 93.3739 104.596 93.7895C103.57 94.3399 101.835 95.7653 100.998 95.9703Z" fill="black"/>
</g>
<defs>
<filter id="filter0_d_163_1039" x="0" y="0" width="249" height="222" filterUnits="userSpaceOnUse" color-interpolation-filters="sRGB">
<feFlood flood-opacity="0" result="BackgroundImageFix"/>
<feColorMatrix in="SourceAlpha" type="matrix" values="0 0 0 0 0 0 0 0 0 0 0 0 0 0 0 0 0 0 127 0" result="hardAlpha"/>
<feOffset dy="4"/>
<feGaussianBlur stdDeviation="2"/>
<feComposite in2="hardAlpha" operator="out"/>
<feColorMatrix type="matrix" values="0 0 0 0 0 0 0 0 0 0 0 0 0 0 0 0 0 0 0.25 0"/>
<feBlend mode="normal" in2="BackgroundImageFix" result="effect1_dropShadow_163_1039"/>
<feBlend mode="normal" in="SourceGraphic" in2="effect1_dropShadow_163_1039" result="shape"/>
</filter>
</defs>
</svg>
